/* XPM */
static char *result[] = {
/* columns rows colors chars-per-pixel */
"64 64 16 1 ",
"  c black",
". c #080706",
"X c #0A0908",
"o c #573015",
"O c #8F4B1B",
"+ c #BD570F",
"@ c #8F6D29",
"# c #B0752C",
"$ c #BF7F30",
"% c #B1B535",
"& c #DB9512",
"* c #EF9C00",
"= c #F0B852",
"- c #FFE78F",
"; c #FBFF8F",
": c None",
/* pixels */
"::::::::::::::::::::::::::::::::::::::::::::::::::::::::::::::::",
"::::::::::::::::::::::::::::::::::::::::::::::::::::::::::::::::",
"::::::::::::::::::::::::::::::::::::::::::::::::::::::::::::::::",
"::::::::::::::::::::::::::::::::::::::::::::::::::::::::::::::::",
"::::::::::::::::::::::::::::::::::::::::::::::::::::::::::::::::",
"::::::::::::::::::::::::::::::::::::::::::::::::::::::::::::::::",
"::::::::::::::::::::::::::::::::::::::::::::::::::::::::::::::::",
"::::::::::::::::::::::::::::::::::::::::::::::::::::::::::::::::",
"::::::::::::::::::::::::::::::::::::::::::::::::::::::::::::::::",
"::::::::::::::::::::::::::::::::::::::::::::::::::::::::::::::::",
"::::::::::::::::::::::::::::::::::::::::::::::::::::::::::::::::",
"::::::::::::::::::::::::::::::::::::::::::::::::::::::::::::::::",
"::::::::::::::::::::::::      ::::::::::::::::::::::::::::::::::",
":::::::::::::::::::::::  @ @@ ::::::::::::::::::::::::::::::::::",
"::::::::::::::::::::::: @@@@@@ :::::::::::::::::::::::::::::::::",
"::::::::::::::::::::::: @@@@@@ :::::::::::::::::::::::::::::::::",
":::::::::::::::::::::::    %@@@ ::::::::::::::::::::::::::::::::",
":::::::::::::::::::::::::: @@@@ ::::::::::::::::::::::::::::::::",
"::::::::::::::::::::::::::  %@@ ::::::::::::::::::::::::::::::::",
":::::::::::::::::::::::::::  %@ ::::::::::::::::::::::::::::::::",
":::::::::::::::::::::::::::: @@% :::::::::::::::::::::::::::::::",
"::::::::::::::::::::::::::::  @@ :::::::::::::::::::::::::::::::",
"::::::::::::::::::::::::::::: @@ :::::::::::::::::::::::::::::::",
":::::::::::::::::::::::::::::: @ :::::::::::::::::::::::::::::::",
":::::::::::::::::::::::::::::: O :::::::::::::::::::::::::::::::",
":::::::::::::::::::::::::::::  O :::::::::::::::::::::::::::::::",
":::::::::::::::::::::::::::: $$OO  :::::::::::::::::::::::::::::",
"::::::::::::::::::::::::::  $$$=&$$    :::::::::::::::::::::::::",
":::::::::::::::::::::::::  $$====$$$$$   :::::::::::::::::::::::",
":::::::::::::::::::::::   =======**$$$$$ :::::::::::::::::::::::",
"::::::::::::::::::::::  ==========**&&&$  ::::::::::::::::::::::",
":::::::::::::::::::::: ==--========*&&&$$  :::::::::::::::::::::",
":::::::::::::::::::::  =-;;========*&&&&$$ :::::::::::::::::::::",
"::::::::::::::::::::: ==-;;========*&&&&&$$ ::::::::::::::::::::",
"::::::::::::::::::::  ==-;==========*&&&&&$ ::::::::::::::::::::",
":::::::::::::::::::: ===============*&&&&&$ ::::::::::::::::::::",
":::::::::::::::::::: ===============*&&&&&$ ::::::::::::::::::::",
":::::::::::::::::::: ===  ======  ==*&&&&&& ::::::::::::::::::::",
":::::::::::::::::::: ===  ======  ==*&&&&&& ::::::::::::::::::::",
":::::::::::::::::::: ===  ======  ==*&&&&&& ::::::::::::::::::::",
":::::::::::::::::::: ===  ======  ==*&&&&&& ::::::::::::::::::::",
":::::::::::::::::::: ======    =====*&&&&&& ::::::::::::::::::::",
":::::::::::::::::::: ===============*&&&&&& ::::::::::::::::::::",
":::::::::::::::::::: ===============*&&&&&& ::::::::::::::::::::",
":::::::::::::::::::: ===============&&&&&&& ::::::::::::::::::::",
":::::::::::::::::::: ===============&&&&&&& ::::::::::::::::::::",
":::::::::::::::::::: ===============&&&&&&& ::::::::::::::::::::",
":::::::::::::::::::: =-============&&&&&&&& ::::::::::::::::::::",
":::::::::::::::::::: ==============&&&&&&&& ::::::::::::::::::::",
":::::::::::::::::::: ==============&&&&&&&& ::::::::::::::::::::",
":::::::::::::::::::: =-===========&&&o&&&&& ::::::::::::::::::::",
"::::::::::  :::::::  =-===========&&&o&&&&& :::::    :::::::::::",
"::::::::  && :::::  =-===========&&&oo&&&&&& :::: #$ :::::::::::",
":::::::: -&&  :::  =-===========&&&&o&&&&&&&&    $#$ :::::::::::",
":::::::: --&=     =-===========&&&&&o&&&&&&&&&&$$$$$ :::::::::::",
":::::::: --&==================&&&&&oo&&&&&&&&&&&&$$$ :::::::::::",
"::::::::  --&===;============&&&&oo+o&&&&&&&&&&&&$$  :::::::::::",
"::::::::: ---&=============&&&&&oo++o&&&&&&&&&&&&$$ ::::::::::::",
"::::::::: ----&&=========&&&&&&oo++++o&&&&&&&&&&$$$ ::::::::::::",
":::::::::  ----&&&&&===&&&&&&ooo+++++o&&&&&&&&&&$  :::::::::::::",
"::::::::::  ----&&&&&&&&&&&&oo+++++   &&&&&&&&&&$ ::::::::::::::",
":::::::::::  ----&&&&&&&&&&o        ::          ::::::::::::::::",
":::::::::::::       ......XX::::::::::::::::::::::::::::::::::::",
"::::::::::::::::::::::::::::::::::::::::::::::::::::::::::::::::"
};
