/* XPM */
static char *_703c72da76a29c6ae77113ad9620cdbcd9350db_o[] = {
/* columns rows colors chars-per-pixel */
"64 64 143 2 ",
"   c None",
".  c black",
"X  c #010100",
"o  c #020100",
"O  c #030100",
"+  c #070501",
"@  c #070603",
"#  c #0D0901",
"$  c #0C0904",
"%  c #0A0908",
"&  c #130D01",
"*  c #130D02",
"=  c #120E07",
"-  c #171002",
";  c #181002",
":  c #191308",
">  c #1F1508",
",  c #1E180C",
"<  c #402F12",
"1  c #582E11",
"2  c #573015",
"3  c #6B552A",
"4  c #775B28",
"5  c #BD570F",
"6  c #8E6C29",
"7  c #8F6D29",
"8  c #897328",
"9  c #92742A",
"0  c #A26B29",
"q  c #AA712A",
"w  c #AB712B",
"e  c #BB7C2F",
"r  c #BC7D2F",
"t  c #BE7E30",
"y  c #BF7F30",
"u  c #B1B535",
"i  c #DE960F",
"p  c #DF960F",
"a  c #CE8C11",
"s  c #CE8B1E",
"d  c #CF8C1E",
"f  c #D48F1A",
"g  c #D08C1E",
"h  c #D79212",
"j  c #D59114",
"k  c #D59117",
"l  c #D79217",
"z  c #D89312",
"x  c #D99412",
"c  c #DA9412",
"v  c #DB9512",
"b  c #DB9613",
"n  c #DC9511",
"m  c #DD9610",
"M  c #D89315",
"N  c #D89116",
"B  c #DA9615",
"V  c #DC9614",
"C  c #DC9715",
"Z  c #DD9817",
"A  c #D59018",
"S  c #D69118",
"D  c #DD9818",
"F  c #DD9919",
"G  c #DE991A",
"H  c #EC9B02",
"J  c #ED9B02",
"K  c #E99A05",
"L  c #EA9A05",
"P  c #E89906",
"I  c #E89907",
"U  c #EF9E06",
"Y  c #E1970D",
"T  c #E1940E",
"R  c #E0970E",
"E  c #E2980B",
"W  c #E3980B",
"Q  c #E4980A",
"!  c #EF9F0A",
"~  c #EFA00C",
"^  c #EFA212",
"/  c #EFA51C",
"(  c #CB8923",
")  c #CC8922",
"_  c #CA8824",
"`  c #C58429",
"'  c #C2822C",
"]  c #D39924",
"[  c #D79A3E",
"{  c #EFA822",
"}  c #EFA824",
"|  c #EFA927",
" . c #E2A429",
".. c #E4A62E",
"X. c #EFAA28",
"o. c #E5A631",
"O. c #E8AB3B",
"+. c #F0AF36",
"@. c #E7B13D",
"#. c #F0B03C",
"$. c #CD9D46",
"%. c #EBAF42",
"&. c #E2AD4D",
"*. c #E8B340",
"=. c #EDB349",
"-. c #F0B240",
";. c #F0B549",
":. c #EDB550",
">. c #EEB550",
",. c #EDB651",
"<. c #EFB750",
"1. c #EEB651",
"2. c #EFB752",
"3. c #EFB852",
"4. c #EDBE51",
"5. c #F0B852",
"6. c #F0B953",
"7. c #F0B954",
"8. c #F1BA54",
"9. c #F1BA55",
"0. c #F1BD58",
"q. c #F2BF5B",
"w. c #F2BF5C",
"e. c #E5BE64",
"r. c #F2C55D",
"t. c #F2C65E",
"y. c #F1C85F",
"u. c #DEC97C",
"i. c #F3C360",
"p. c #F3CD64",
"a. c #F6CA6A",
"s. c #F3CD69",
"d. c #F3CB6D",
"f. c #F4D56B",
"g. c #F8D172",
"h. c #F8D476",
"j. c #F8D578",
"k. c #F9DA7C",
"l. c #FADB7D",
"z. c #FBDF82",
"x. c #F7DF8A",
"c. c #FFE78F",
"v. c #FBFF8F",
/* pixels */
"                                                                                                                                ",
"                                                                                                                                ",
"                                                                                                                                ",
"                                                                                                                                ",
"                                                                                                                                ",
"                                                                                                                                ",
"                                                                                                                                ",
"                                                                                                                                ",
"                                                                                                                                ",
"                                                                                                                                ",
"                                                                                                                                ",
"                                                                                                                                ",
"                                                                                                                                ",
"                                                                                                                                ",
"                                                                                                                                ",
"                                                                                                                                ",
"                                                                                                                                ",
"                                            , , , , , , ,                                                                       ",
"                                            , 6 6 6 6 6 , ,                                                                     ",
"                                            , , 6 u u 6 6 ,                                                                     ",
"                                              , , , , u 6 , ,                                                                   ",
"                                                    , , u 6 ,                                                                   ",
"                                                      , , 6 ,                                                                   ",
"                                                        , u , ,                                                                 ",
"                                                        , , 8 ,                                                                 ",
"                                                          , 9 ,                                                                 ",
"                                                          , 6 ,                                                                 ",
"                                                          , < ,                                                                 ",
"                                                          , 1 ,                                                                 ",
"                                                  . $ : = @ @ , @ @ @ @ @ @                                                     ",
"                                            . , . . j.j.<.<.5.<.[ v v v y y @ @ @                                               ",
"                                        . , . j.j.j.j.5.5.5.5.5.-.{ H R M M M ` @ @                                             ",
"                                      . , j.j.j.v.v.5.5.5.5.5.5.5.5., ! R v v g ' @ >                                           ",
"                                    . , j.j., , 5.v.5.5.5.5.<.<., , &.^ W v v v M ( w @                                         ",
"                                    , j.j.j.5., , 5.5.5.5.5.<., , <.5.5.X.K v v v v l v @                                       ",
"                                    . j.j., , 5., 5.5.5.5.5.5.<., , <.5.+.H v v v v v v @                                       ",
"                                  . . j.5., , 5.5.5.5.<.3.5.5.<., , <.5.;.~ W v v v v f @                                       ",
"                                  . j.j.5., , 5.5.5.5.5.5.5.5.<., , <.5.5.} K v v v v v l @                                     ",
"                                  @ j.j.5.5.<.5.5.5., , , , 5.<.<.<.<.5.5.#.U W v v v v v @                                     ",
"                                  @ j.5.5.5.5.5.5.5.5.5.5.5.5.5.5.5.5.5.5.5./ K m v v v v @ @                                   ",
"                                . @ j.5.5.5.5.5.5.5.5.5.5.5.5.5.5.5.5.5.5.5.} H R v v v v a @                                   ",
"                                . j.j.5.5.5.5.5.5.5.5.5.5.5.5.5.5.5.5.5.5.5.X.K Q v v v v v @                                   ",
"                                . j.5.5.5.5.5.5.5.5.5.5.5.5.5.5.5.5.5.5.5.5.} K K m v v v v @                                   ",
"                                . j.j.5.5.5.5.5.5.5.5.5.5.5.5.5.5.5.5.5.5.5.} K K i v v v v @                                   ",
"                                . . j.5.5.5.5.5.5.5.5.5.5.5.5.5.5.5.5.5.5.5.} K i v v v v v @                                   ",
"                                  . 5.5.5.5.5.5.5.5.5.5.5.5.5.5.5.5.5.5.5.} } K v v v v v v @                                   ",
"                                  . . w.5.5.5.5.5.5.5.5.5.5.5.5.5.5.5.5.5.} K K v v v v v v @                                   ",
"                                    . i.7.5.5.5.5.5.5.5.5.5.5.5.5.5.5.5.} } K K v v v v v v @                                   ",
"                                    . i.5.5.5.5.5.5.5.5.5.5.5.5.5.5.5.5.} K K v v v v v v v @                                   ",
"                                    . i.i.5.5.5.5.5.5.5.5.5.5.5.5.5.5.} K K v v v v v v v v @                                   ",
"                                    . i.i.i.5.5.5.5.5.5.5.5.5.5.5.5.} K K v 2 v v v v v v v @                                   ",
"                                    . 3 d.g.5.5.5.5.5.5.5.5.5.5.5.5.K K v v 2 v v v v v v v @                                   ",
"              . . . .               . 3 j.7.5.5.5.5.5.5.5.5.5.5.5.K K K 2 2 2 v v v v v v v @                                   ",
"            . . ] v . .           . . e.a.5.5.5.5.5.5.5.5.5.5.5.K K K v 2 v v v v v v v v v @         @ @ @ @                   ",
"            . k.z.B v . . . . . . . 4 h.7.5.5.5.5.5.5.5.5.5.5.K K v v v 2 v v v v v v v v v @       @ @ w e @                   ",
"            . . k...=.$.4 4 4 4 4 4 q.q.5.5.5.5.5.5.5.5.5.5.K K v v v 2 2 v v v v v v v v v @ @ @ @ @ e y y @                   ",
"              . c.k. .O.5.5.5.p.f.5.5.5.5.5.5.5.5.5.5.5.K K K v v 2 2 5 2 v v v v v v v v v v v l s d y y @ @                   ",
"              . c.c.c.*.o.5.5.r.r.5.5.5.5.5.5.5.5.5.5.K K v v v 2 2 5 5 2 v v v v v v v v v v v v v S y r @                     ",
"              @ . c.c.c.4.F F %.5.5.5.5.5.5.5.5.5.v v v v v v 2 2 5 5 5 5 2 z v v v v v v v v v v M _ y @ @                     ",
"                . . x.c.c.y.Z v v V V F 5.5.5.v v v v v v 2 2 2 5 5 5 5 5 2 z v v v v v v v v v v S 0 @ @                       ",
"                  . . . c.c.c.@.v v v v v v v v v v v v 2 2 5 5 5 5 5 . . . h v v v v v v v v v v ) @ @                         ",
"                    . . u.u.u.u.s.v v v v v v v v v v 2 . . . . . . . .     . . . . @ # & ; - & @ @ @                           ",
"                        . . . . . . . . . . . . . . % %                                                                         ",
"                                                                                                                                "
};
