/* XPM */
static char *_f0ef8746842d3dd28d11d2553189e819c92270d_o[] = {
/* columns rows colors chars-per-pixel */
"64 64 164 2 ",
"   c None",
".  c black",
"X  c #030200",
"o  c #030201",
"O  c #050200",
"+  c #040201",
"@  c #060300",
"#  c #070300",
"$  c #070301",
"%  c #080401",
"&  c #0B0501",
"*  c #0A0804",
"=  c #0A0805",
"-  c #0D0B08",
";  c #0F0C08",
":  c #0F0D08",
">  c #100803",
",  c #160A02",
"<  c #170B02",
"1  c #1E180C",
"2  c #211709",
"3  c #22170B",
"4  c #342912",
"5  c #592907",
"6  c #583115",
"7  c #53401A",
"8  c #664E1E",
"9  c #66501F",
"0  c #6E5421",
"q  c #7B7B26",
"w  c #984911",
"e  c #B8550F",
"r  c #B9550F",
"t  c #BB560F",
"y  c #BD570F",
"u  c #827327",
"i  c #8C7C29",
"p  c #90702A",
"a  c #91732A",
"s  c #93772B",
"d  c #957C2C",
"f  c #BF7F30",
"g  c #898329",
"h  c #9E8D2E",
"j  c #91922C",
"k  c #9F902F",
"l  c #A1932F",
"z  c #A3A131",
"x  c #A9A632",
"c  c #AFB234",
"v  c #D48E0F",
"b  c #DE940A",
"n  c #DF960E",
"m  c #DE960F",
"M  c #DF960F",
"N  c #CD8A1C",
"B  c #D08D11",
"V  c #D08D1A",
"C  c #D49011",
"Z  c #D69112",
"A  c #D79212",
"S  c #D99312",
"D  c #D99412",
"F  c #DA9412",
"G  c #DA9512",
"H  c #DB9512",
"J  c #DA9413",
"K  c #DD9510",
"L  c #DC9511",
"P  c #DD9610",
"I  c #DE9610",
"U  c #DC9614",
"Y  c #DC9715",
"T  c #DD9919",
"R  c #DD9A1A",
"E  c #DE9A1A",
"W  c #DF9B1D",
"Q  c #E79906",
"!  c #E89A06",
"~  c #E99A06",
"^  c #E99B06",
"/  c #E99B07",
"(  c #E1970D",
")  c #E2970C",
"_  c #E3980A",
"`  c #E59908",
"'  c #E49809",
"]  c #E69908",
"[  c #E4980A",
"{  c #E2980C",
"}  c #E99B08",
"|  c #EB9D09",
" . c #ED9E0A",
".. c #EA9D0D",
"X. c #EB9F10",
"o. c #E09B19",
"O. c #EBA013",
"+. c #E8A018",
"@. c #EBA21A",
"#. c #EDA31A",
"$. c #EDA41C",
"%. c #D8A73D",
"&. c #EBA521",
"*. c #EDA621",
"=. c #ECA624",
"-. c #ECA726",
";. c #E2A129",
":. c #E3A22A",
">. c #E3A32B",
",. c #EFAA29",
"<. c #EFAA2A",
"1. c #EDAC34",
"2. c #EFAD34",
"3. c #EFAE35",
"4. c #EDAD36",
"5. c #EFAE36",
"6. c #EFAF38",
"7. c #EEAF3B",
"8. c #EAAD3E",
"9. c #EAAD3F",
"0. c #F0AF38",
"q. c #EEB03D",
"w. c #E7AF4A",
"e. c #EEB141",
"r. c #E6B14F",
"t. c #E8B748",
"y. c #EFB54A",
"u. c #EFB64D",
"i. c #F0B446",
"p. c #F0B54A",
"a. c #F0B74F",
"s. c #E9B350",
"d. c #EAB350",
"f. c #EFB750",
"g. c #EFB751",
"h. c #EFB852",
"j. c #F0B750",
"k. c #F0B751",
"l. c #F0B851",
"z. c #F0B852",
"x. c #F0B853",
"c. c #F0B953",
"v. c #F1B954",
"b. c #F0BA54",
"n. c #F0BB55",
"m. c #F0BB56",
"M. c #F1BD56",
"N. c #F1BC57",
"B. c #F2BF5B",
"V. c #EFC156",
"C. c #F3C25F",
"Z. c #F2C75F",
"A. c #F3C360",
"S. c #F4C766",
"D. c #F2CA62",
"F. c #F3CB62",
"G. c #F5CB6B",
"H. c #F6D377",
"J. c #FCE084",
"K. c #F9E18B",
"L. c #FDE288",
"P. c #FAE38C",
"I. c #FBE38C",
"U. c #FEE58C",
/* pixels */
"                                                                                                                                ",
"                                                                                                                                ",
"                                                                                                                                ",
"                                                                                                                                ",
"                                                                                                                                ",
"                                                                                                                                ",
"                                                                                                                                ",
"                                                                                                                                ",
"                                                                                                                                ",
"                                                                                                                                ",
"                                                                                                                                ",
"                                                                                                                                ",
"                                                                                                                                ",
"                                                                                                                                ",
"                                                                                                                                ",
"                                                                                                                                ",
"                                                                                                                                ",
"                                                                                                                                ",
"                                                                                                                                ",
"                                                                                                                                ",
"                                                                                                                                ",
"                                                                                                                                ",
"                                                                                                                                ",
"                                                                                                                                ",
"                                              O O O O O O                                                                       ",
"                                              O c c p p O O                                                                     ",
"                                              O p c p p p O                                                                     ",
"                                                O O d l p O O                                                                   ",
"                                                  O O c k p O                                                                   ",
"                                                    O O g s O                                                                   ",
"                                                      O O h O O                                                                 ",
"                                                        O z 9 1                                                                 ",
"                                                        O O i 4 O                                                               ",
"                                                          O x 7 O                                                               ",
"                                                          O q 8 O                                                               ",
"                                                            7 0 O                                                               ",
"                                                            O u O O                                                             ",
"                                                            O j p O                                                             ",
"                                                              O p O                                                             ",
"                                                              O p O                                                             ",
"                                                              O p O                                                             ",
"                                                              O p O                                                             ",
"                                                              O 7 O                                                             ",
"                                                O O O O O O O O 3 O O O O O O O O                                               ",
"                                            O O O z.z.z.z.C.h.f.H H H H H H H f f O O O O                                       ",
"                                        O O O H.H.H.z.z.z.z.z.z.z.w.H H H H H H V N f f O                                       ",
"                                    O O H.H.H.O O z.z.z.z.z.z.d.O O z.z.@.M H H H H H f f O O O                                 ",
"                                  O O H.H.G.z.O O z.z.r.d.h.z.z.O O z.k.0.} P H H H H H f f f O O                               ",
"                                O O H.H.n.z.z.z.z.z.z.O O O z.h.z.z.z.z.k.,.| { P H H H H f f f O                               ",
"                              O O H.H.z.z.z.z.z.z.z.z.z.z.z.z.z.z.z.z.z.z.k.,. .' P H H H H H f f O                             ",
"                              O H.H.z.z.z.z.z.z.z.z.z.z.z.z.z.z.z.z.z.z.z.z.4.O.~ ' P H H H H H f O O                           ",
"                            O O H.n.z.z.z.z.z.z.z.z.z.z.z.z.z.z.z.z.z.z.z.a.6.#.' P H H H H H H f f O                           ",
"                          O O H.H.n.z.z.z.z.z.z.z.z.z.z.z.z.z.z.z.z.z.z.i.4.$.~ 6 6 H H H H H H H f f O                         ",
"  O O O O O               O H.H.A.B.n.z.z.z.z.z.z.z.z.z.z.z.z.z.z.z.p.4.*.X.Q 6 6 H H H H H H H H H f O O                       ",
"  O H H H.O O           O O H.H.S.B.z.z.z.z.z.z.z.z.z.z.z.z.z.u.6.=...~ b v 6 6 H H H H H H H H H H f f O           O O 3 O     ",
"  O H H H H.O O O O O O O H.H.M.z.z.z.z.z.z.z.z.z.z.z.u.e.@.} ~ _ H H M 6 6 H H H H H H H H H H H H H f f O     O = O f f O     ",
"  O P.J.H H H.H.H.H.H.H.H.H.z.z.z.z.z.z.z.z.z.z.y.4.4.=.~ ' ( P H H 6 6 6 6 H H H H H H H H H H H H H f f O O O O O f f f O     ",
"  O O P.L.H H z.M.D.Z.z.z.z.z.z.z.z.z.z.z.z.z.q.&.~ ' ( ( M H H H 6 y y y 6 H H H H H H H H H H H H H H f f f f f f f f O O     ",
"    O : K.U.V.H H H n.z.z.z.z.z.z.z.z.z.8.:.:.o.M M P H H H H 6 6 w y y y 6 6 6 H H H H H H H H H H H H H f f f f f f f O       ",
"      O P.P.P.D.E H H H W :.f.z.z.8.E E U H H H H H H H H 6 6 y y y y y y y y 6 H H H H H H H H H H H H f f f f f f O O         ",
"        O . P.P.P.t.E H H H H H U U H H H H H H H H H 6 6 r r r y y y 5 , , > 6 H H H H H H H H H f f f f f f f f O O           ",
"          O O P.P.P.P.%.B C C C C S H H H H H H H H 6 . O O O O % % % O O     O O f f f f f f f f f f f f f f f O               ",
"              O O O O O O O O O O O O O O O . = : -                             O O O O O O O O O O O O O O O O                 ",
"                                                                                                                                "
};
