/* XPM */
static char *pixel_come1676968257[] = {
/* columns rows colors chars-per-pixel */
"64 64 34 1 ",
"  c None",
". c black",
"X c #453214",
"o c #4C3A1D",
"O c #4D3B1D",
"+ c #4F3C1E",
"@ c #4F3D1E",
"# c #503D1F",
"$ c #513E1F",
"% c #523F1F",
"& c #534020",
"* c #584422",
"= c #5B4523",
"- c #324F4A",
"; c #5D746D",
": c #825F26",
"> c #856633",
", c #A77D38",
"< c #BB8F47",
"1 c #BD9148",
"2 c #B7B279",
"3 c #B7B37B",
"4 c #B6B57D",
"5 c #C2954A",
"6 c #C3954B",
"7 c #C4964B",
"8 c #C4964C",
"9 c #C4974C",
"0 c #C3994F",
"q c #C39950",
"w c #C29A51",
"e c #F5BB5D",
"r c #D8CE89",
"t c #F5D29A",
/* pixels */
"                                                                ",
"                                                                ",
"                                                                ",
"                                                                ",
"                                                                ",
"                                                                ",
"                                                                ",
"                                                                ",
"                                                                ",
"                                                                ",
"      .......................................................   ",
"    ..eeeeeeeeeeeeeeerrrrr;;;;rrrrrrrrrrreeeeeeeeeee.....:::.   ",
"   .eeeeeeeeeeerrrrrrrr;;;rrrrrrrrrreeeeeeeeee.......,,:::::.   ",
" .............;;;;;;;;;;;;;;;..................:::,,,,,:::::.   ",
" .eeeeeeeeeeeerrrrrrrrrrrrrrreeeeeeeeeeeeeeeeX::::,,,,,:::::.   ",
" .7777777777774444444444444447777777777777777X::::,,,,,:::::.   ",
" .7777777777774444444444444447777777777777777X::::,,,,,:::::.   ",
" .7777777777774444444444444447777777777777777X::::,,,,,:::::.   ",
" .7777777777774444444444444447777777777777777X::::,,,,,:::::.   ",
" .7777777777774444444444444447777777777777777X::::::::::::::.   ",
" .7777777777774444444444444447777777777777777X::::.......t::.   ",
" .7777777777774444444444444447777777777777777X:::.........t:.   ",
" .7777777777774444444444444447777777777777777X:::.........t:.   ",
" .7777777777774444444444444327777777777777777X:::.........t:.   ",
" .77777777777787777777778q0qq9877777777777777X::::.......t::.   ",
" .7777777777777777777777777777877777777777777X::::::::::::::.   ",
" .7777777777777777777777777777777667767777967X::::::::::::::.   ",
" .77777ooooooo77ooooooo17ooo777o@o77OooOoo@67X::::::::::::::.   ",
" .77777o77777777o77777o77o<o777#7&77o77777767X::::::::::::::.   ",
" .77777o77777777o77777o77o6o777#7=77o67777777X::::::::::::::.   ",
" .77777o77777777o77777o77o7o777o7=77O77777777X::::::::::::::.   ",
" .77777o77777777o77777o77o7o777o6&76o77777777X::::::::::::::.   ",
" .77777o77777777o77777o77o7o77oo6&77O77777777X::::::::::::::.   ",
" .77777o77777777o77777o77o7oo7o76@77o67776777X::::::::::::::.   ",
" .77777o77777777o77777o77o77o7o79o67O66656777X::::::::::::::.   ",
" .77777o77777777o77777o77o77o7o77O77oooOooO77X::::::::::::::.   ",
" .77777o77777777o77777o77o77o7o76o77o77777777X::::::::::::::.   ",
" .77777o77777777o77777o77o77ooo77O77o67777777X::::::::::::::.   ",
" .77777o77777777o77777o77o777o776O77O77777777X::::::::::::::.   ",
" .77777o77777777o77777o77o777o776o76o77777777X::::::::::::::.   ",
" .77777o77777777o77777o77o777o777o67o67777777X::::::::::::::.   ",
" .77777o77777777o77777o77@777o777O77O67777777X::::::::::::::.   ",
" .77777ooooooo77ooooooo77o777o776O77OooOoOO67X::::::::::::::.   ",
" .7777777777777777777777777777777777776767777X::::::::::::::.   ",
" .7777777777777777777777777777777777777777777X::::::::::::::.   ",
" .7777777777777777777777777777777777777777777X::::::::::::::.   ",
" .7777777777777777777777777777777777777777777X::::,,,,::::::.   ",
" .7777777777777777777777777777777777777777777X::::,,,,::::::.   ",
" .7777777777777777777777777777777777777777777X::::,,,,::::::.   ",
" .7777777777777777777777777777777777777777777X::::,,,,::::::.   ",
" .7777777777777777777777777777777777777777777X::::,,,,::::::.   ",
" .77777777777444444444444444777777>>7>>>7>>>7X::::,,,,::::::.   ",
" .77777777777444444444444444777777>>7>>>7>>>7X::::,,,,::::::.   ",
" .77777777777444444444444444777777>>7>>>7>>>7X::::,,,,::::::.   ",
" .77777777777444444444444444777777>>7>>>7>>>7X::::,,,,::::::.   ",
" .77777777777444444444444444777777>>7>>>7>>>7X::::,,,,::::::.   ",
" .77777777777444444444444444777777>>7>>>7>>>7X::::,,,,::::::.   ",
" .77777777777444444444444444777777>>7>>>7>>>7X::::,,,,::::::.   ",
" .77777777777444444444444444777777>>>>>>7>>>7X::::,,,,::::::.   ",
" .7777777777744444444444444477777777777777787X::::,,,,::::::.   ",
" ............---------------......................@o@@.......   ",
"                                                                ",
"                                                                ",
"                                                                "
};
