/* XPM */
static char *result[] = {
/* columns rows colors chars-per-pixel */
"64 64 44 1 ",
"  c black",
". c #453214",
"X c #4C3A1D",
"o c #4D3B1D",
"O c #4E3B1E",
"+ c #4F3C1E",
"@ c #4F3D1E",
"# c #503D1F",
"$ c #513E1F",
"% c #523F1F",
"& c #534020",
"* c #544020",
"= c #554121",
"- c #574221",
"; c #584322",
": c #584422",
"> c #5A4522",
", c #5B4523",
"< c #644C26",
"1 c #6D542A",
"2 c #324F4A",
"3 c #5D746D",
"4 c #825F26",
"5 c #856633",
"6 c #A77D38",
"7 c #AE8643",
"8 c #BA8E47",
"9 c #BB8F47",
"0 c #BD9148",
"q c #B7B279",
"w c #B7B37B",
"e c #B6B57D",
"r c #C2954A",
"t c #C3954B",
"y c #C4964B",
"u c #C4964C",
"i c #C4974C",
"p c #C3994F",
"a c #C39950",
"s c #C29A51",
"d c #F5BB5D",
"f c #D8CE89",
"g c #F5D29A",
"h c None",
/* pixels */
"hhhhhhhhhhhhhhhhhhhhhhhhhhhhhhhhhhhhhhhhhhhhhhhhhhhhhhhhhhhhhhhh",
"hhhhhhhhhhhhhhhhhhhhhhhhhhhhhhhhhhhhhhhhhhhhhhhhhhhhhhhhhhhhhhhh",
"hhhhhhhhhhhhhhhhhhhhhhhhhhhhhhhhhhhhhhhhhhhhhhhhhhhhhhhhhhhhhhhh",
"hhhhhhhhhhh                                          hhhhhhhhhhh",
"hhhhhhhhhhhh  ddddddddddddddddddddddddddddddddddddd4  hhhhhhhhhh",
"hhhhhhhhhhhhh 444444444444444444444444444444444444444 hhhhhhhhhh",
"hhhhhhhhhhhhh  44444................................4  hhhhhhhhh",
"hhhhhhhhhhhhhh 44444.................................4  hhhhhhhh",
"hhhhhhhhhhhhhhh 4444..................................4  hhhhhhh",
"hhhhhhhhhhhhhhh  444...................................4 hhhhhhh",
"hhhhhhhhhhhhhhhh 44....................................4  hhhhhh",
"hhhhhhhhhhhhhhhh  4.....................................4  hhhhh",
"hhhhhhhhhhhhhhhhh 4......................................4  hhhh",
"h             333333333333333                               hhhh",
"h ddddddddddddfffffffffffffffddddddddddddddddddddddddddddddd hhh",
"h yyyyyyyyyyyyeeeeeeeeeeeeeeeyyyyyyyyyyyyyyyy.44446666644444 hhh",
"h yyyyyyyyyyyyeeeeeeeeeeeeeeeyyyyyyyyyyyyyyyy.44446666644444 hhh",
"h yyyyyyyyyyyyeeeeeeeeeeeeeeeyyyyyyyyyyyyyyyy.44446666644444 hhh",
"h yyyyyyyyyyyyeeeeeeeeeeeeeeeyyyyyyyyyyyyyyyy.44446666644444 hhh",
"h yyyyyyyyyyyyeeeeeeeeeeeeeeeyyyyyyyyyyyyyyyy.44444444444444 hhh",
"h yyyyyyyyyyyyeeeeeeeeeeeeeeeyyyyyyyyyyyyyyyy.4444       g44 hhh",
"h yyyyyyyyyyyyeeeeeeeeeeeeeeeyyyyyyyyyyyyyyyy.444         g4 hhh",
"h yyyyyyyyyyyyeeeeeeeeeeeeeeeyyyyyyyyyyyyyyyy.444         g4 hhh",
"h yyyyyyyyyyyyeeeeeeeeeeeeewqyyyyyyyyyyyyyyyy.444         g4 hhh",
"h yyyyyyyyyyyyuyyyyyyyyyuapasiuyyyyyyyyyyyyyy.4444       g44 hhh",
"h yyyyyyyyyyyyyyyyyyyyyyyyyyyyyyyyyyyyyyyyyyy.44444444444444 hhh",
"h yyyyyyyyyyyyyyyyyyyyyyyyyyyyyyyyyyyyyyyyyyy.44444444444444 hhh",
"h yyyyXyyyyyyXyyXXXXXXX0yoXXyyyXoXyyXXXXXX@ry.44444444444444 hhh",
"h yyyyXyyyyyyXyyXyyyyyXyyo9Xyyy$7&yyXyyyyyyty.44444444444444 hhh",
"h yyyyXyyyyyyXyyXyyyyyXyy-tXyyy#t,yyXyyyyyyyy.44444444444444 hhh",
"h yyyyXyyyyyyXyyXyyyyyXyy<y=yyyXy:yyXyyyyyyyy.44444444444444 hhh",
"h yyyyXyyyyyyXyyXyyyyyXyy>y*yyyXy&yyXyyyyyyyy.44444444444444 hhh",
"h yyyyXyyyyyyXyyXyyyyyXyy$y#yyXXy%yyXyyyyyyyy.44444444444444 hhh",
"h yyyyXyyyyyyXyyXyyyyyXyyXyXXyXyy#yyXyyyyyyyy.44444444444444 hhh",
"h yyyyXXXXXXXXyyXyyyyyXyyXyyXyXyyXyyXyttrtyyy.44444444444444 hhh",
"h yyyyX8yyyyyXyyXyyyyyXyyXyyXyXyyXyyXXXXXXXyy.44444444444444 hhh",
"h yyyyXyyyyyyXyyXyyyyyXyyXyyXyXyyXyyXyyyyyyyy.44444444444444 hhh",
"h yyyyXyyyyyyXyyXyyyyyXyyXyyX:XyyXyyXyyyyyyyy.44444444444444 hhh",
"h yyyyXyyyyyyXyyXyyyyyXyyXyyy;tytXyyXyyyyyyyy.44444444444444 hhh",
"h yyyyXyyyyyyXyyXyyyyyXyyoyyy*yyyXyyXyyyyyyyy.44444444444444 hhh",
"h yyyyXyyyyyyXyyXyyyyyXyyoyyyOyyyXyyXyyyyyyyy.44444444444444 hhh",
"h yyyyXyyyyyyXyyXyyyyyXtyoyyyXyyyXyyXyyyyyyyy.44444444444444 hhh",
"h yyyy1yyyyyyXyyXXXXXXXyyXyyyXyyyXyyXXXXXXXyy.44444444444444 hhh",
"h yyyyyyyyyyyyyyyyyyyyyyyyyyyyyyyyyyyyyyyyyyy.44444444444444 hhh",
"h yyyyyyyyyyyyyyyyyyyyyyyyyyyyyyyyyyyyyyyyyyy.44444444444444 hhh",
"h yyyyyyyyyyyyyyyyyyyyyyyyyyyyyyyyyyyyyyyyyyy.44444444444444 hhh",
"h yyyyyyyyyyyyyyyyyyyyyyyyyyyyyyyyyyyyyyyyyyy.44446666444444 hhh",
"h yyyyyyyyyyyyyyyyyyyyyyyyyyyyyyyyyyyyyyyyyyy.44446666444444 hhh",
"h yyyyyyyyyyyyyyyyyyyyyyyyyyyyyyyyyyyyyyyyyyy.44446666444444 hhh",
"h yyyyyyyyyyyyyyyyyyyyyyyyyyyyyyyyyyyyyyyyyyy.44446666444444 hhh",
"h yyyyyyyyyyyyyyyyyyyyyyyyyyyyyyyyyyyyyyyyyyy.44446666444444 hhh",
"h yyyyyyyyyyyeeeeeeeeeeeeeeeyyyyyy55y555y555y.44446666444444 hhh",
"h yyyyyyyyyyyeeeeeeeeeeeeeeeyyyyyy55y555y555y.44446666444444 hhh",
"h yyyyyyyyyyyeeeeeeeeeeeeeeeyyyyyy55y555y555y.44446666444444 hhh",
"h yyyyyyyyyyyeeeeeeeeeeeeeeeyyyyyy55y555y555y.44446666444444 hhh",
"h yyyyyyyyyyyeeeeeeeeeeeeeeeyyyyyy55y555y555y.44446666444444 hhh",
"h yyyyyyyyyyyeeeeeeeeeeeeeeeyyyyyy55y555y555y.44446666444444 hhh",
"h yyyyyyyyyyyeeeeeeeeeeeeeeeyyyyyy55y555y555y.44446666444444 hhh",
"h yyyyyyyyyyyeeeeeeeeeeeeeeeyyyyyy555555y555y.44446666444444 hhh",
"h yyyyyyyyyyyeeeeeeeeeeeeeeeyyyyyyyyyyyyyyyyy.44446666444444 hhh",
"h            222222222222222                      ++++       hhh",
"hhhhhhhhhhhhhhhhhhhhhhhhhhhhhhhhhhhhhhhhhhhhhhhhhhhhhhhhhhhhhhhh",
"hhhhhhhhhhhhhhhhhhhhhhhhhhhhhhhhhhhhhhhhhhhhhhhhhhhhhhhhhhhhhhhh",
"hhhhhhhhhhhhhhhhhhhhhhhhhhhhhhhhhhhhhhhhhhhhhhhhhhhhhhhhhhhhhhhh"
};
