/* XPM */
static char *pixel_noonoo_w1676968383[] = {
/* columns rows colors chars-per-pixel */
"64 64 64 1 ",
"  c None",
". c black",
"X c #010101",
"o c #020202",
"O c gray1",
"+ c #040404",
"@ c #060606",
"# c #D35618",
"$ c #E8641B",
"% c #CC0049",
"& c #CD0049",
"* c #D3004C",
"= c #DD0050",
"- c #E10052",
"; c #D98600",
": c #D98700",
"> c #DA8700",
", c #DA8800",
"< c #DB8800",
"1 c #DC8900",
"2 c #DD8B00",
"3 c #DF8D00",
"4 c #E08D00",
"5 c #E28F00",
"6 c #E29000",
"7 c #E69300",
"8 c #E99600",
"9 c #EA9700",
"0 c #ED9A00",
"q c #EF9C00",
"w c #F0A10C",
"e c #DCB4AC",
"r c #DDB4AD",
"t c #DEB5AE",
"y c #DEB6AE",
"u c #DFB6AE",
"i c #DFB6AF",
"p c #DFB7AF",
"a c #E0B8B0",
"s c #E1B9B1",
"d c #E3BCB3",
"f c #E4BDB3",
"g c #E4BEB4",
"h c #E8C2B7",
"j c #E9C4B9",
"k c #EBC6BA",
"l c #ECC7BB",
"z c #F1D0C1",
"x c #F2D1C2",
"c c #F3D1C2",
"v c #F4D2C3",
"b c #F5D3C4",
"n c #E4D8DF",
"m c #E7DBE2",
"M c #F0E9ED",
"N c #F1EAEE",
"B c #F7F3F5",
"V c #F8F5F7",
"C c #FBF9FA",
"Z c #FDFBFC",
"A c #FDFCFD",
"S c #FEFDFE",
"D c #FEFEFE",
"F c white",
/* pixels */
"                    ........................                    ",
"                   ..jbbbbbbbbbbbbbbbbbbbbb..                   ",
"                  ..plbbb$$$bb$$bb$$$b$$bbbt..                  ",
"                  .tp$$bb$$$bb$$bb$$$b$$b$$tt.                  ",
"                  .ta$$bb$$$bb$$bb$$$b$$b$$tt.                  ",
"                  .ta$$bb$$$bb$$bb$$$b$$b$$tt.                  ",
"                  .ta$$bb$$$bbbbbbbbbb$$b$$tt.                  ",
"                  .tp$$bbbbbbbbbbbbbbbbbb$$tt.                  ",
"                  .tplbbbbbbbb--------bbbbbtt.                  ",
"                  .ttjbbb------bbbbbb----bbtt.                  ",
"                  .tth---bbbbbbbbbvbbbbbb---t.                  ",
"                  .t%*-vvbbbbbbbbbbbbbbbbbb-%.                  ",
"                  .%%fbbbbbbbbbbbbbbbbbbbbbbt.                  ",
"                  .%tdbbbvbbbbbbbbbvvbbbbbbtt.                  ",
"                  .ttgbbbvbbbbbbbvbbvbbbbbbtt.                  ",
"                  .ttjbbbvbbbbbbbbbbbbbzbbbtt.                  ",
"                  .tahbbbbbbbbbbbbbbbbbzbbbtt.                  ",
"                  .tahbbbbbbbbbbbbbbbbbbbbbtt.                  ",
"                  .tahbbbbbbbbbbbbbbbbbbbbbtt.                  ",
"                  .tahbbbvbbbbbbbbbbbbbbbbbtt.                  ",
"                  .tahbbbbbbbbbbbbbbbbbbbbbtt.                  ",
"                ...tahbbbbbbbbbbbbbbbbbbbbbtt...                ",
"               ..tttahbbbtttttttttttttttbbbtttt..               ",
"               .ttttahttttttttttttttattttbbbtttt.               ",
"               .ttttttttt------------ttttttttttt.               ",
"               .ttttt%---bbbbbbbbbbbb--------ttt.               ",
"               .tt---bbbbb$bbb$bb$bb$bb$bb$b--=t.               ",
"               .---ttb$bbb$ttt#tt#pj#tt#tb$bb$t%.               ",
"               .-t#ttb#ttttttttttttttttttttvb$tt.               ",
"               .tt#tttt....@.....@.........ttttt.               ",
"               .tttt....;,,2467VZZZFFZVMMq2....t.               ",
"               .tt...;;;;480qqqFFFFFFFFFFq042;...               ",
"               ...;;qqqqqqqqqqqFFFFFFFFFFqqqq;;;.               ",
"              ..;;qqqqqqqqqqqqqFFFFFFFFFFFqqqq;;..              ",
"              .;;;qqqqqqqqqqqqqFFFFFFFFFFFqqqqqq;.              ",
"              .;;qqqqqqqqqqqqqqFFFFFFFFFFFFqqqqq;..             ",
"              .;;qqqqqqqqqqqqqqFFFFFFFFFFFFFqqqqq;.             ",
"              .;,qqqqqqqqqqqq;;FFFFFFFFFFFFFFqqqq;.             ",
"              .;q8qqqqqqqqqqq;FFFFFFFFFFFFFFFFFqq;.             ",
"              .;qqqqqqqqqqqqq;FFFFFFFFFFFFFFFFFFF;.             ",
"              .;qqqqqqqqqqqq;FFFFFFFFFFFFFFFFFFFF..             ",
"              .;;qqqqqqqqqqq;FFFFFFFFFFFFFFFFFFFF.              ",
"              .;;qqqqqqqqqq;FFFFFFFFFFFFFFFFFFFFm.              ",
"               .;qqqqqqqqqqFF.FFFF..FFFFFFFFFFFFm.              ",
"               .;;qqqqqqqqFF..FFFFF..FFFFFFFFFFF..              ",
"                .;qqqqqqqqFF.FFFFFFF.FFFFFFFFFFm.               ",
"                .;;qqqqqFFFF.mmFFFFm.FFFFFFFFFFm.               ",
"                ..;;wqFFFFFF.mmmmmmm.FFFFFFFFFFm.               ",
"                ..mmFFFFFFFF..mmm...FFFFFFFFFFFF.               ",
"                .mmmFFFFFFFFF..... ..mmmFFFFFFFFm.              ",
"               ..;FFFFFFFFFF..      ...mmFFFFFFFm.              ",
"              .;;qqFFFFFFFF..         ..mFFFFFFFFm.             ",
"              .;qqqFFFFFFFF.           .mmFFFFFFFF..            ",
"             .;;qqqqFFFFFF.             .mmFFFFFFFF.            ",
"             .;qqqqqFFFFF.               .mFFFFFFFF.            ",
"             .;qqqqqFFFF.                ..mFFFFFFFF.           ",
"             .qqqqqqFFF..                 .mFFFFFFFF.           ",
"            .mqqqqFFFFF.                  .mFFFFFFFF.           ",
"          ...mFFFFFFFF.                   .mFFFFFFFF...         ",
"          .mmFFFFFFFF..                   ..mFFFFFFFFF..        ",
"         ..mFFFFFFFFF.                     .mFFFFFFFFFm.        ",
"         .mmFFFFFFFFF.                     .mFFFFFFFFFm.        ",
"         ..mnmmmmmmm..                     .mmmmmmmmmmm.        ",
"          ...........                       ............        "
};
