/* XPM */
static char *pixel_noonoo_s31676968383[] = {
/* columns rows colors chars-per-pixel */
"64 64 79 1 ",
"  c None",
". c black",
"X c #010101",
"o c #020202",
"O c gray1",
"+ c #040404",
"@ c #050404",
"# c #060606",
"$ c #D35618",
"% c #E05F1A",
"& c #E2601A",
"* c #E8641B",
"= c #CC0049",
"- c #CD0049",
"; c #D3004C",
": c #DD0050",
"> c #E10052",
", c #D98600",
"< c #D98700",
"1 c #DA8700",
"2 c #DA8800",
"3 c #DB8800",
"4 c #DC8900",
"5 c #DD8B00",
"6 c #DF8C00",
"7 c #DF8D00",
"8 c #E08D00",
"9 c #E18E00",
"0 c #E28F00",
"q c #E29000",
"w c #E69300",
"e c #E99600",
"r c #EA9700",
"t c #ED9A00",
"y c #EF9C00",
"u c #DCB4AC",
"i c #DDB4AD",
"p c #DEB5AE",
"a c #DEB6AE",
"s c #DFB6AE",
"d c #DFB6AF",
"f c #DFB7AF",
"g c #E0B8B0",
"h c #E1B9B1",
"j c #E1BAB1",
"k c #E3BCB3",
"l c #E4BDB3",
"z c #E4BEB4",
"x c #E5BEB4",
"c c #E6BFB5",
"v c #E7C1B7",
"b c #E8C2B7",
"n c #E9C4B9",
"m c #EBC6BA",
"M c #ECC7BB",
"N c #EDC9BD",
"B c #EFCBBE",
"V c #ECCCBD",
"C c #EFCCBE",
"Z c #F1D0C1",
"A c #F2D1C2",
"S c #F3D1C2",
"D c #F4D2C3",
"F c #F5D3C4",
"G c #E7DBE2",
"H c #E8DCE3",
"J c #ECE3E8",
"K c #EDE4E9",
"L c #EFE7EC",
"P c #F0E9ED",
"I c #F1EAEE",
"U c #F7F3F5",
"Y c #F8F5F7",
"T c #FBF9FA",
"R c #FDFBFC",
"E c #FDFCFD",
"W c #FEFDFE",
"Q c #FEFEFE",
"! c white",
/* pixels */
"                    ........................                    ",
"                   ..nFFFFFFFFFFFFFFFFFFFFF..                   ",
"                  ..fMFFF***FF**FF***F**FFFF..                  ",
"                  .pfN*FF***FF**FF***F**F**Fp.                  ",
"                  .pgC*FF***FF**FF***F**F**Fp.                  ",
"                  .pgV*FF***FF**FF***F**F**Fp.                  ",
"                  .pg&*FF***FFFFFFFFFF**F**Fp.                  ",
"                  .pf&*FFFFFFFFFFFFFFFFFF**Fp.                  ",
"                  .ppMFFFFFFFF>>>>>>>>FFFFFFp.                  ",
"                  .ppnFFF>>>>>>FFFFFF>>>>FFFp.                  ",
"                  .ppb>>>FFFFFFFFFDFFDFFF>>>p.                  ",
"                  .p=;>FDFF.....FF....FFFFF>=.                  ",
"                  .==lFF.FF.FFF.FF.FF.FFFFFFp.                  ",
"                  .=pkFF.DF.FFF.FF.DD.FF....p.                  ",
"                  .ppxFF.DF.FFF.FD.FF.FF.FF.p.                  ",
"                  .ppvFF.DF.FFF.FF.FF.FZ.FF.p.                  ",
"                  .pgvFF.FF.FFF.FF.FF.FZ.FFFp.                  ",
"                  .pgbFF.FF.FFF.FF.FF.FF.FFFp.                  ",
"                  .p.....FF.FFF.FF.FF.FF....p.                  ",
"                  .p.xFF.DF.FFF.FF.DF.FFDFF.p.                  ",
"                  .p.gDF.FF.FFF.FF.FF.FFDFF.p.                  ",
"                ...p.pFF.FFVFFFFFF....FF.FF.f...                ",
"               ..ppp.@...pppppppppppfppp....FFf..               ",
"               .ppppppppdpppppppppppgppppFFFFFDp.               ",
"               .ppppppppp>>>>>>>>>>>>pFFpppppppp.               ",
"               .ppppp=>>>FFFFFFFFFFDF>>>>>>>>Fpp.               ",
"               .pp>>>FFFFF*FFF*FF*FD*FF*FF*F>>:p.               ",
"               .>>>ppF*FFF*ppp$pp$gM$pp$pF*FF*F=.               ",
"               .>p$ppF$pppdppppppppppppppppDF*FF.               ",
"               .pp$pppp....@.....@.........pDMgF.               ",
"               .pppp....11259qwYR!R!!RYPP55....p.               ",
"               .pp...11116etyyy!!!!!!!!!!!tq21...               ",
"               ...,111yyyyyyyyy!!!!!!!!!!!yyy111.               ",
"               ..,,1tyyyyyy..yy!!!!!!!.....yyt11..              ",
"                .11yyyyy....yyy!!!!!!!!.......yy1.              ",
"               ..1yyyy......yyt!!!!!!!!.......yy1..             ",
"               .11ty........yyy!!!!!!!!..!...yyyt1.             ",
"               .19yy....!...t11G!!!!!!!......yyyt1.             ",
"               ..eyyy.......t1!!!!!!!!!......!!yy1.             ",
"                .1yyy.......11!>>>!!!!!......!!!!1.             ",
"                .1yyy.......1!!!!!!!!!!......!!!!..             ",
"                .1yyy.......1!!...!!!!!!!!!!!!!!!.              ",
"                 .1yyyyyyyt1!!..!..!!!!!!!!!!!!!G.              ",
"                 .1tyyyyyyy1G!.!!!..!!!!!!!!!!!!G.              ",
"                 ..1yyyyyyyGH..!!!!..!!!!!!!!!!!..              ",
"                  .1yyyyyy!!G!!!!!!!!L!!!!!!!!!G.               ",
"                  .1yyyy!!!!GGG!!!!GGP!!!!!!!!!G.               ",
"               ......y!!!!!!!GGGGGGGGJ!!!!!!!!!G.               ",
"              ..111y!!!!!!!!!GGGH....H!!!!!!!!!!.               ",
"              .1yytt!!!!!!GGG.....  ...K!!!!!!!!G.              ",
"             .....!!!!!!!....         ..G!!!!!!!G.              ",
"           ..!!!!..!!!!GG.             .GG!!!!!!!G.             ",
"          ..G!>!!!.!!!!G.              ..G!!!!!!!!..            ",
"          .G>G!!!>!!!!!G.               ..G!!!!!!!!.            ",
"          .GGG>>!!!!!!!..                .G!!!!!!!!.            ",
"          .GG>>>>>!!!!!.                 ..G!!!!!!!!.           ",
"          .GG>>>>>!!!!!.                  .G!!!!!!!!.           ",
"          ..G>>>>>!!!!!.                  .G!!!!!!!!.           ",
"           .G>>>>>!!!GG.                  .G!!!!!!!!...         ",
"           ...GGGGGGGG..                  ..G!!!!!!!!!..        ",
"             ..GHGGGH..                    .G!!!!!!!!!!.        ",
"              .......                      .G!!!.!!!.!!.        ",
"                                           .GGGG.GGG.GG.        ",
"                                            ............        "
};
