/* XPM */
static char *result[] = {
/* columns rows colors chars-per-pixel */
"64 64 82 1 ",
"  c black",
". c #010101",
"X c #020202",
"o c gray1",
"O c #040404",
"+ c #050404",
"@ c #060606",
"# c #D35618",
"$ c #E05F1A",
"% c #E2601A",
"& c #E8641B",
"* c #CC0049",
"= c #CD0049",
"- c #D3004C",
"; c #DD0050",
": c #E10052",
"> c #D98600",
", c #D98700",
"< c #DA8700",
"1 c #DA8800",
"2 c #DB8800",
"3 c #DC8900",
"4 c #DD8B00",
"5 c #DF8C00",
"6 c #DF8D00",
"7 c #E08D00",
"8 c #E18E00",
"9 c #E28F00",
"0 c #E29000",
"q c #E69300",
"w c #E99600",
"e c #EA9700",
"r c #ED9A00",
"t c #EF9C00",
"y c #F0A10C",
"u c #DCB4AC",
"i c #DDB4AD",
"p c #DEB5AE",
"a c #DEB6AE",
"s c #DFB6AE",
"d c #DFB6AF",
"f c #DFB7AF",
"g c #E0B8B0",
"h c #E1B9B1",
"j c #E1BAB1",
"k c #E3BCB3",
"l c #E4BDB3",
"z c #E4BEB4",
"x c #E5BEB4",
"c c #E6BFB5",
"v c #E7C1B7",
"b c #E8C2B7",
"n c #E9C4B9",
"m c #EBC6BA",
"M c #ECC7BB",
"N c #EDC9BD",
"B c #EFCBBE",
"V c #ECCCBD",
"C c #EFCCBE",
"Z c #F1D0C1",
"A c #F2D1C2",
"S c #F3D1C2",
"D c #F4D2C3",
"F c #F5D3C4",
"G c #E6D9DA",
"H c #E4D8DF",
"J c #E7DBE2",
"K c #E8DCE3",
"L c #ECE3E8",
"P c #EDE4E9",
"I c #EFE7EC",
"U c #F0E9ED",
"Y c #F1EAEE",
"T c #F7F3F5",
"R c #F8F5F7",
"E c #FBF9FA",
"W c #FDFBFC",
"Q c #FDFCFD",
"! c #FEFDFE",
"~ c #FEFEFE",
"^ c white",
"/ c None",
/* pixels */
"///////////////////                        /////////////////////",
"//////////////////  nFFFFFFFFFFFFFFFFFFFFF  ////////////////////",
"/////////////////  dMFFF&&&FF&&FF&&&F&&FFFF  ///////////////////",
"///////////////// pfN&FF&&&FF&&FF&&&F&&F&&Fp ///////////////////",
"///////////////// pgB&FF&&&FF&&FF&&&F&&F&&Fp ///////////////////",
"///////////////// pgC&FF&&&FF&&FF&&&F&&F&&Fp ///////////////////",
"///////////////// pg%&FF&&&FFFFFFFFFF&&F&&Fp ///////////////////",
"///////////////// pf$&FFFFFFFFFFFFFFFFFF&&Fp ///////////////////",
"///////////////// psmFFFFFFFF::::::::FFFFFFp ///////////////////",
"///////////////// ppnFFF::::::FFFFFF::::FFFp ///////////////////",
"///////////////// ppb:::FFFFFFFFFDFFDFFF:::p ///////////////////",
"///////////////// p*-:FDFF     FF    FFFFF:* ///////////////////",
"///////////////// **lFF FF FFF FF FF FFFFFFp ///////////////////",
"///////////////// *akFF DF FFF FF DS FF    p ///////////////////",
"///////////////// pdzFF DF FFF FD FF FF FF p ///////////////////",
"///////////////// pfcFF DF FFF FF FF FZ FF p ///////////////////",
"///////////////// pgvFF FF FFF FF FF FA FFFp ///////////////////",
"///////////////// pgbFF FF FFF FF FF FF FFFp ///////////////////",
"///////////////// p     FF FFF FF FF FF    p ///////////////////",
"///////////////// p xFF DF FFF FF DD FFSFF p ///////////////////",
"///////////////// p jSF FF FFF FF FF FFFFF p ///////////////////",
"///////////////   p dFF FFVFFFFFF    FF FF p   /////////////////",
"//////////////  ppp +   ipppppppppppppp    FFs  ////////////////",
"////////////// ppppppppdppppppppppahppppFFFFFFp ////////////////",
"////////////// ppppppppp::::::::::::pFFpppppppp ////////////////",
"////////////// ppppp*:::FFFFFFFFFFFF::::::::Fpp ////////////////",
"////////////// pp***FFFFF&FFF&FF&FF&FF&FF&F::;p ////////////////",
"////////////// **pppF&FFF&ppp#pp#fm#pp#pF&FF&F= ////////////////",
"////////////// *p#ppF#ppppppppppppppppppppFF&FF ////////////////",
"////////////// pp#pppp    @.   XOo        uDMgF ////////////////",
"////////////// pppp    >,2470qREWQ~!WTYU53  X p ////////////////",
"////////////// pp   >>><6wrttt^^^^^^^^^^^r91>   ////////////////",
"//////////////   >>>>ttttttttt^^^^^^^^^^^ttt>>> ////////////////",
"//////////////  >>>ttttttt  tt^^^^^^^     ttt>>  ///////////////",
"/////////////// >>ttttt    ttt^^^^^^^^       tt> ///////////////",
"//////////////  >tttt      ttt^^^^^^^^       tt>  //////////////",
"////////////// >>tt        ttt^^^^^^^^  ^   tttt> //////////////",
"////////////// 28tt    ^   t>>J^^^^^^^      tttt> //////////////",
"//////////////  ettt       t>^^^^^^^^^      ^^tt> //////////////",
"/////////////// >ttt       >>^:::^^^^^      ^^^^> //////////////",
"/////////////// >ttt       >^^^^^^^^^^      ^^^^  //////////////",
"/////////////// >ttt       >^^   ^^^^^^^^^^^^^^^ ///////////////",
"//////////////// >tttttttt>^^  ^  ^^^^^^^^^^^^^J ///////////////",
"//////////////// >tttttttt>K^ ^^^  ^^^^^^^^^^^^J ///////////////",
"////////////////  >tttttttJK  ^^^^  ^^^^^^^^^^^  ///////////////",
"///////////////// >tttttt^^J^^^^^^^^I^^^^^^^^^J ////////////////",
"///////////////// >tttt^^^^JJJ^^^^JJU^^^^^^^^^J ////////////////",
"////////////////  Gyt^^^^^^^JJJJJJJJL^^^^^^^^^J ////////////////",
"////////////////  J^^^^^^^^^JJJJ    K^^^^^^^^^^ ////////////////",
"/////////////// JJJ^^^^^^^^^     // o P^^^^^^^^J ///////////////",
"//////////////  >^^^^^^^^^^  ////////  J^^^^^^^J ///////////////",
"///////////// t>tt^^^^^^^^  ////////// JJ^^^^^^^J //////////////",
"///////////// >ttt^^^^^^^^ ///////////  J^^^^^^^^  /////////////",
"//////////// >>tttt^^^^^^ /////////////  J^^^^^^^^ /////////////",
"//////////// >ttttt^^^^^ /////////////// J^^^^^^^^ /////////////",
"//////////// >ttttt^^^^ ////////////////  J^^^^^^^^ ////////////",
"//////////// tttttt^^^  ///////////////// J^^^^^^^^ ////////////",
"///////////oJtttt^^^^^ ////////////////// J^^^^^^^^ ////////////",
"/////////   J^^^^^^^^ /////////////////// J^^^^^^^^   //////////",
"///////// JJ^^^^^^^^  ///////////////////  J^^^^^^^^^  /////////",
"//////// .J^^^^^^^^^ ///////////////////// J^^^^^^^^^^ /////////",
"//////// JJ^ ^^^ ^^^ ///////////////////// J^^^ ^^^ ^^ /////////",
"////////  JH JJJ JJ  ///////////////////// JJJJ JJJ JJ /////////",
"/////////           ///////////////////////            /////////"
};
