/* XPM */
static char *_56b12eadb7e40c0f07fbe4a2f4778b9Piq1CtLeSZy0e903[] = {
/* columns rows colors chars-per-pixel */
"64 64 64 1 ",
"  c None",
". c black",
"X c #010101",
"o c #020202",
"O c gray1",
"+ c #040404",
"@ c #060606",
"# c #D35618",
"$ c #E8641B",
"% c #CC0049",
"& c #CD0049",
"* c #D3004C",
"= c #DD0050",
"- c #E10052",
"; c #D98600",
": c #D98700",
"> c #DA8700",
", c #DA8800",
"< c #DB8800",
"1 c #DC8900",
"2 c #DD8B00",
"3 c #DF8D00",
"4 c #E08D00",
"5 c #E28F00",
"6 c #E29000",
"7 c #E69300",
"8 c #E99600",
"9 c #EA9700",
"0 c #ED9A00",
"q c #EF9C00",
"w c #F0A10C",
"e c #DCB4AC",
"r c #DDB4AD",
"t c #DEB5AE",
"y c #DEB6AE",
"u c #DFB6AE",
"i c #DFB6AF",
"p c #DFB7AF",
"a c #E0B8B0",
"s c #E1B9B1",
"d c #E3BCB3",
"f c #E4BDB3",
"g c #E4BEB4",
"h c #E8C2B7",
"j c #E9C4B9",
"k c #EBC6BA",
"l c #ECC7BB",
"z c #F1D0C1",
"x c #F2D1C2",
"c c #F3D1C2",
"v c #F4D2C3",
"b c #F5D3C4",
"n c #E4D8DF",
"m c #E7DBE2",
"M c #F0E9ED",
"N c #F1EAEE",
"B c #F7F3F5",
"V c #F8F5F7",
"C c #FBF9FA",
"Z c #FDFBFC",
"A c #FDFCFD",
"S c #FEFDFE",
"D c #FEFEFE",
"F c white",
/* pixels */
"                      ........................                  ",
"                     ..jbbbbbbbbbbbbbbbbbbbbb..                 ",
"                    ..tlbbb$$$bb$$bb$$$b$$bbbt..                ",
"                    .ta$$bb$$$bb$$bb$$$b$$b$$tt.                ",
"                    .ta$$bb$$$bb$$bb$$$b$$b$$tt.                ",
"                    .ta$$bb$$$bb$$bb$$$b$$b$$tt.                ",
"                    .ta$$bb$$$bbbbbbbbbb$$b$$tt.                ",
"                    .tp$$bbbbbbbbbbbbbbbbbb$$tt.                ",
"                    .ttlbbbbbbbb--------bbbbbtt.                ",
"                    .ttjbbb------bbbbbb----bbtt.                ",
"                    .tth---bbbbbbbbbvbbbbbb---t.                ",
"                    .t%*-bvbbbbbbbbbbbbbbbbbb-%.                ",
"                    .%%fbbbbbbbbbbbbbbbbbbbbbbt.                ",
"                    .%tdbbbvbbbbbbbbbvcbbbbbbtt.                ",
"                    .tagbbbvbbbbbbbvbbbbbvbbbtt.                ",
"                    .tthbbbvbbbbbbbbbbbbbcbbbtt.                ",
"                    .tahbbbbbbbbbbbbbbbbbcbbbtt.                ",
"                    .tahbbbbbbbbbbbbbbbbbbbbbtt.                ",
"                    .tahbbbbbbbbbbbbbbbbbbbbbtt.                ",
"                    .tahbbbbbbbbbbbbbvbbbbbbbtt.                ",
"                    .tahbbbbbbbbbbbbbbbbbbbbbtt.                ",
"                  ...tahbbbbbbbbbbbbbbbbbbbbbtt...              ",
"                 ..tttahbbbtttttttttttttttbbbtttt..             ",
"                 .ttttahttttttttttttttattttbbbtttt.             ",
"                 .ttttttttt------------ttttttttttt.             ",
"                 .ttttt%---bbbbbbbbbbbb--------ttt.             ",
"                 .tt---bbbbb$bbb$bb$bb$bb$bb$b--=t.             ",
"                 .---ttb$bbb$ttt#tt#aj#tt#tb$bb$t%.             ",
"                 .-t#ttb#ttttttttttttttttttttvb$tt.             ",
"                 .tt#tttt....@.....OO........ttptt.             ",
"                 .tttt....;,,2467VCZZFFZBNNq2....t.             ",
"                 .tt...;;;;480qqqFFFFFFFFFFq04,;...             ",
"                 ...;;qqqqqqqqqqqFFFFFFFFFFqqqq;;;.             ",
"                ..;;qqqqqqqqqqqqqFFFFFFFFFFFqqqq;;..            ",
"                .;;;qqqqqqqqqqqqqFFFFFFFFFFFqqqqqq;.            ",
"                .;;qqqqqqqqqqqqqqFFFFFFFFFFFFqqqqq;..           ",
"                .;;qqqqqqqqqqqqqqFFFFFFFFFFFFFqqqqq;.           ",
"                .;,qqqqqqqqqqqq;;FFFFFFFFFFFFFFqqqq;.           ",
"                .;q8qqqqqqqqqqq;FFFFFFFFFFFFFFFFFqq;.           ",
"                .;qqqqqqqqqqqqq;FFFFFFFFFFFFFFFFFFF;.           ",
"                .;qqqqqqqqqqqq;FFFFFFFFFFFFFFFFFFFF..           ",
"                .;;qqqqqqqqqqq;FFFFFFFFFFFFFFFFFFFF.            ",
"                .;;qqqqqqqqqq;FFFFFFFFFFFFFFFFFFFFm.            ",
"                 .;qqqqqqqqqqFF.FFFF..FFFFFFFFFFFFm.            ",
"                 .;;qqqqqqqqFF..FFFFF..FFFFFFFFFFF..            ",
"                  .;qqqqqqqqFF.FFFFFFF.FFFFFFFFFFm.             ",
"                  .;;qqqqqFFFF.mmFFFFm.FFFFFFFFFmm.             ",
"                  ..;;wqFFFFFF.mmmmmmm.FFFFFFFFFm.              ",
"                  ..mmFFFFFFFF..mmm...FFFFFFFFFFm.              ",
"                  .mmmFFFFFFFFF..... ...FFFFFFFFm..             ",
"                 ..;FFFFFFFFFF..       ..FFFFFFFFF.             ",
"                .;;qqFFFFFFFF..          .FFFFFFFF..            ",
"                .;qqqFFFFFFFF.           .FFFFFFFF...           ",
"               .;;qqqqFFFFFF.            .FFFFFFF..m.           ",
"               .;qqqqqFFFFF.             .FFFFFFF.mm.           ",
"               .;qqqqqFFFF.              .FFFFFFm.mm.           ",
"               .qqqqqqFFF..               .FFFFFmmm..           ",
"              +mqqqqFFFFF.                .FFFFmmm..            ",
"            ...mFFFFFFFF.                 .mmmmmm..             ",
"            .mmFFFFFFFF..                 ........              ",
"           ..mFFFFFFFFF.                                        ",
"           .mmFFFFFFFFF.                                        ",
"           ..mnmmmmmmm..                                        ",
"            ...........                                         "
};
