/* XPM */
static char *pixel_noonoo_a41676969445[] = {
/* columns rows colors chars-per-pixel */
"64 64 13 1 ",
"  c None",
". c black",
"X c #D35618",
"o c #E8641B",
"O c #E10052",
"+ c #EC6B76",
"@ c #D98600",
"# c #EF9C00",
"$ c #DEB5AE",
"% c #F5D3C4",
"& c #E7DBE2",
"* c #F0E9ED",
"= c white",
/* pixels */
"                     .......................                    ",
"                    ..%%%%%%%%%%%%%%%%%$$$$...                  ",
"                   ..%%%%oo%ooo%%oo%oooo$$$$$..                 ",
"                  .$$%oo%oo%ooo%%oo%oooo$$XX$$.                 ",
"                  .$$%oo%oo%ooo%%oo%oooo$$XX$$.                 ",
"                  .$$%oo%oo%ooo%%oo%oooo$$XX$$.                 ",
"                  .$$%oo%oo%%%%%%%%%oooo$$XX$$.                 ",
"                  .$$%oo%%%%%%%%%%%%%%%$$$XX$$.                 ",
"                  .$$%%%%%%OOOOOOO%%%%%$$$$$$$.                 ",
"                  .$$%%%OOOO%%%%%%OOOOOO$$$$$$.                 ",
"                  .$$OOO%%%%%%%%%%%%%%%$OO$$$$.                 ",
"                  .$OO%%%%%%%%%%%%%%%%%$$$OOO$.                 ",
"                  .O$%%%%%%%%%%%%%%%%%%$$$$$OO.                 ",
"                  .$$%%%%%%%%%%%%%%%%%%$$$$$$$.                 ",
"                  .$$%%%%%%%%%%%%%%%%%%$$$$$$$.                 ",
"                  .$$%%%%%%%%%%%%%%%%%%$$$$$$$.                 ",
"                  .$$%%%%%%%%%%%%%%%%%%$$$$$$$.                 ",
"                  .$$%%%%%%%%%%%%%%%%%%$$$$$$$.                 ",
"                  .$$%%%%%%%%%%%%%%%%%%$$$$$$$.                 ",
"                  .$$%%%%%%%%%%%%%%%%%%$$$$$$$.                 ",
"                  .$$%%%%%%%%%%%%%%%%%%$$$$$$$.                 ",
"                 ..$$%%%%%%%%%%%%%%%%%%%$$$$$$..                ",
"                ..$$%%%%%%%%%%%%%%%%%%%%%$$$$$$...              ",
"                .$$%%%%%%%%%%%%%%%%%%%%%%$$$$$$$$.              ",
"                .$%%%%%%OOOOOOOOOOOOOOOOOO$$$$$$$.              ",
"                .$%OOOOOO%%%%%%%%%%%%%%%%OOO$$$$$.              ",
"                .OOO%%%%%o%%o%%o%%o%%%o%%$$OOOO$$.              ",
"                .O%%%%o%%o%%o%%o%%o%%%o%%$X$$$OOO.              ",
"                .$%o%%o%%%%%%%%%%%%%%%%%%$X$$X$$O.              ",
"                .$%o%%.....................$$X$$O.              ",
"                .$.....@@@@@@@@@@@@@@@@@@@...$$$$.              ",
"                ...*@@@@@@@@@@@@@@@@@@@@@@@@@..$$.              ",
"                .***#####################@@@@@....              ",
"               ...==###....#################@@@@..              ",
"              ...====####.....################@@@.              ",
"              ...====####........##############@@.              ",
"              .=.=====###.=.....###############@@.              ",
"              ...======##.......###############@@.              ",
"              ...==***=##.......###############@..              ",
"              ...**+++=##.......###############@.               ",
"              .**=======#.......###############@.               ",
"              .**==...===#####################@@.               ",
"              .**==.=..=====##################@..               ",
"              ..*==.==..=====################@@.                ",
"               .**=.===..=====###############@..                ",
"               ..&=============##############@.                 ",
"                .*&===============#########@@@.                 ",
"                ..&*****============#####@@@...                 ",
"                 ..****===============#@@@...                   ",
"                   ....===============@@...                     ",
"                       .***===========*..                       ",
"                      .*************=*..                        ",
"                      .*****..##=====*.                         ",
"                      .*****.###=====*.                         ",
"                      .*****.@###====*.                         ",
"                      ..****.@@##====*.                         ",
"                       .****..@@#====*.                         ",
"                        .****..@#====*..                        ",
"                      ..******.*=====**..                       ",
"                      .*****..*=======**.                       ",
"                      .*.**.*==========*.                       ",
"                      .*.**..=.=======**.                       ",
"                      .......*.********..                       ",
"                            ............                        "
};
