/* XPM */
static char *_ff683f44bd7c00eb790ceab3c48b942dedd43c6_o[] = {
/* columns rows colors chars-per-pixel */
"64 64 13 1 ",
"  c None",
". c black",
"X c #D35618",
"o c #E8641B",
"O c #E10052",
"+ c #EC6B76",
"@ c #D98600",
"# c #EF9C00",
"$ c #DEB5AE",
"% c #F5D3C4",
"& c #E7DBE2",
"* c #F0E9ED",
"= c white",
/* pixels */
"                    .......................                     ",
"                  ...$$$$%%%%%%%%%%%%%%%%%..                    ",
"                 ..$$$$$oooo%oo%%ooo%oo%%%%..                   ",
"                 .$$XX$$oooo%oo%%ooo%oo%oo%$$.                  ",
"                 .$$XX$$oooo%oo%%ooo%oo%oo%$$.                  ",
"                 .$$XX$$oooo%oo%%ooo%oo%oo%$$.                  ",
"                 .$$XX$$oooo%%%%%%%%%oo%oo%$$.                  ",
"                 .$$XX$$$%%%%%%%%%%%%%%%oo%$$.                  ",
"                 .$$$$$$$%%%%%OOOOOOO%%%%%%$$.                  ",
"                 .$$$$$$OOOOOO%%%%%%OOOO%%%$$.                  ",
"                 .$$$$OO$%%%%%%%%%%%%%%%OOO$$.                  ",
"                 .$OOO$$$%%%%%%%%%%%%%%%%%OO$.                  ",
"                 .OO$$$$$%%%%%%%%%%%%%%%%%%$O.                  ",
"                 .$$$$$$$%%%%%%%%%%%%%%%%%%$$.                  ",
"                 .$$$$$$$%%%%%%%%%%%%%%%%%%$$.                  ",
"                 .$$$$$$$%%%%%%%%%%%%%%%%%%$$.                  ",
"                 .$$$$$$$%%%%%%%%%%%%%%%%%%$$.                  ",
"                 .$$$$$$$%%%%%%%%%%%%%%%%%%$$.                  ",
"                 .$$$$$$$%%%%%%%%%%%%%%%%%%$$.                  ",
"                 .$$$$$$$%%%%%%%%%%%%%%%%%%$$.                  ",
"                 .$$$$$$$%%%%%%%%%%%%%%%%%%$$.                  ",
"                ..$$$$$$%%%%%%%%%%%%%%%%%%%$$..                 ",
"              ...$$$$$$%%%%%%%%%%%%%%%%%%%%%$$..                ",
"              .$$$$$$$$%%%%%%%%%%%%%%%%%%%%%%$$.                ",
"              .$$$$$$$OOOOOOOOOOOOOOOOOO%%%%%%$.                ",
"              .$$$$$OOO%%%%%%%%%%%%%%%%OOOOOO%$.                ",
"              .$$OOOO$$%%o%%%o%%o%%o%%o%%%%%OOO.                ",
"              .OOO$$$X$%%o%%%o%%o%%o%%o%%o%%%%O.                ",
"              .O$$X$$X$%%%%%%%%%%%%%%%%%%o%%o%$.                ",
"              .O$$X$$.....................%%o%$.                ",
"              .$$$$...@@@@@@@@@@@@@@@@@@@.....$.                ",
"              .$$..@@@@@@@@@@@@@@@@@@@@@@@@@*...                ",
"              ....@@@@@#####################***.                ",
"              ..@@@@#################....###==...               ",
"              ..@@################.....####====...              ",
"              ..@##############........####====...              ",
"              .@@###############.....=.###=====.=.              ",
"              .@@###############.......##======...              ",
"              ..@###############.......##=***==...              ",
"               .@###############.......##=+++**...              ",
"               .@###############.......#=======**.              ",
"               .@@#####################===...==**.              ",
"               ..@##################=====..=.==**.              ",
"                .@@################=====..==.==*..              ",
"                ..@###############=====..===.=**.               ",
"                 .@##############=============&..               ",
"                 .@@@#########===============&*.                ",
"                 ...@@@#####*=============***&..                ",
"                   ...@@@#=***===========****..                 ",
"                     ...@@=*******====***....                   ",
"                       ..*====*************.                    ",
"                        ..*=====************.                   ",
"                         .*======*....*******.                  ",
"                         .*======##. ..******.                  ",
"                         .*=====##@.  ..*****..                 ",
"                         .*====##@@.   .******...               ",
"                         .*====#@@.    ..*******.               ",
"                        ..*====#@.      ..*****..               ",
"                       ..**=====@.       .***.**.               ",
"                       .**=======.       ..**.*..               ",
"                       .*========*.       ......                ",
"                       .**=======**.                            ",
"                       ..********.*.                            ",
"                        ............                            "
};
