/* XPM */
static char *pixel_noonoo_s21676968382[] = {
/* columns rows colors chars-per-pixel */
"64 64 80 1 ",
"  c None",
". c black",
"X c #010101",
"o c #020202",
"O c gray1",
"+ c #040404",
"@ c #050404",
"# c #060606",
"$ c #D35618",
"% c #E05F1A",
"& c #E2601A",
"* c #E8641B",
"= c #CC0049",
"- c #CD0049",
"; c #D3004C",
": c #DD0050",
"> c #E10052",
", c #D98600",
"< c #D98700",
"1 c #DA8700",
"2 c #DA8800",
"3 c #DB8800",
"4 c #DC8900",
"5 c #DD8B00",
"6 c #DF8C00",
"7 c #DF8D00",
"8 c #E08D00",
"9 c #E18E00",
"0 c #E28F00",
"q c #E29000",
"w c #E69300",
"e c #E99600",
"r c #EA9700",
"t c #ED9A00",
"y c #EF9C00",
"u c #F0A10C",
"i c #DCB4AC",
"p c #DDB4AD",
"a c #DEB5AE",
"s c #DEB6AE",
"d c #DFB6AE",
"f c #DFB6AF",
"g c #DFB7AF",
"h c #E0B8B0",
"j c #E1B9B1",
"k c #E1BAB1",
"l c #E3BCB3",
"z c #E4BDB3",
"x c #E4BEB4",
"c c #E5BEB4",
"v c #E6BFB5",
"b c #E7C1B7",
"n c #E8C2B7",
"m c #E9C4B9",
"M c #EBC6BA",
"N c #ECC7BB",
"B c #EDC9BD",
"V c #EFCBBE",
"C c #ECCCBD",
"Z c #EFCCBE",
"A c #F1D0C1",
"S c #F2D1C2",
"D c #F3D1C2",
"F c #F4D2C3",
"G c #F5D3C4",
"H c #E6D9DA",
"J c #E4D8DF",
"K c #E7DBE2",
"L c #E8DCE3",
"P c #EFE7EC",
"I c #F0E9ED",
"U c #F1EAEE",
"Y c #F7F3F5",
"T c #F8F5F7",
"R c #FBF9FA",
"E c #FDFBFC",
"W c #FDFCFD",
"Q c #FEFDFE",
"! c #FEFEFE",
"~ c white",
/* pixels */
"                   ........................                     ",
"                  ..mGGGGGGGGGGGGGGGGGGGGG..                    ",
"                 ..gNGGG***GG**GG***G**GGGG..                   ",
"                 .agB*GG***GG**GG***G**G**Ga.                   ",
"                 .ahC*GG***GG**GG***G**G**Ga.                   ",
"                 .ahZ*GG***GG**GG***G**G**Ga.                   ",
"                 .ah&*GG***GGGGGGGGGG**G**Ga.                   ",
"                 .ah%*GGGGGGGGGGGGGGGGGG**Ga.                   ",
"                 .aaNGGGGGGGG>>>>>>>>GGGGGGa.                   ",
"                 .aamGGG>>>>>>GGGGGG>>>>GGGa.                   ",
"                 .aan>>>GGGGGGGGGFGGFGGG>>>a.                   ",
"                 .a=;>GFGG.....GG....GGGGG>=.                   ",
"                 .==zGG.GG.GGG.GG.GG.GGGGGGa.                   ",
"                 .=alGG.FG.GGG.GG.FF.GG....a.                   ",
"                 .agcGG.FG.GGG.GF.GG.GG.GG.a.                   ",
"                 .agcGG.FG.GGG.GG.GG.GD.GG.a.                   ",
"                 .ahbGG.GG.GGG.GG.GG.GD.GGGa.                   ",
"                 .ahnGG.GG.GGG.GG.GG.GG.GGGa.                   ",
"                 .a.....GG.GGG.GG.GG.GG....a.                   ",
"                 .a.cGG.GG.GGG.GG.FF.GFFGG.a.                   ",
"                 .a.hDG.GG.GGG.GG.GG.GGGGG.a.                   ",
"               ...a.hGG.GGCGGGGGG....GG.GG.a...                 ",
"              ..aaa.@...aaaaaaaaaaaaaaa....GGa..                ",
"              .aaaaaaaaaaaaaaaaaaaahaaaaGGGGGGa.                ",
"              .aaaaaaaaa>>>>>>>>>>>>aGGaaaaaaaa.                ",
"              .aaaaa=>>>GGGGGGGGGGGG>>>>>>>>Gaa.                ",
"              .aa>>>GGGGG*GGG*GG*GG*GG*GG*G>>:a.                ",
"              .>>>aaG*GGG*aaa$aa$hm$aa$aG*GG*G=.                ",
"              .>a$aaG$aaaaggaaaaaaaaaaaaaaGG*GG.                ",
"              .aa$aaaa....@.....@.........aDNhG.                ",
"              .aaaa....11258qwTR~E~~EYUU75....a.                ",
"              .aa...11117etyyy~~~~~~~~~~~tq21...                ",
"              ...,111yyyyyyyyy~~~~~~~~~~~yyy111.                ",
"              ..111ytyyyyy..yy~~~~~~~.....yyt11..               ",
"               .1,yyyyy....yyy~~~~~~~~.......yy1.               ",
"              ..1tyyy......yyy~~~~~~~~.......yy1..              ",
"              .11yy........ytt~~~~~~~~..~...yyyy1.              ",
"              .27ty....~...y,1K~~~~~~~......yyyy1.              ",
"              ..eyyy.......y1~~~~~~~~~......~~yy1.              ",
"               .1yyy.......11~>>>~~~~~......~~~~1.              ",
"               .1tyy.......1~~~~~~~~~~......~~~~..              ",
"               .1yyy.......1~~...~~~~~~~~~~~~~~~.               ",
"                .1tyyyyyyy1~~..~..~~~~~~~~~~~~~K.               ",
"                .1yyyyyyyt1L~.~~~..~~~~~~~~~~~~K.               ",
"                ..1yyyyyyyKL..~~~~..~~~~~~~~~~~..               ",
"                 .1yyyyyy~~K~~~~~~~~P~~~~~~~~~.                 ",
"                 .1tyyy~~~~KKK~~~~KKK~~~~~.....                 ",
"                ..Huy~~~~~~~KKKKKKKKK~~~~~~~~~..                ",
"                ..K~~~~~~~~~KKKKKKKK~~~~~~~~~~K.                ",
"               .KKK~~~~~~~~~.........~~~~~~~.....               ",
"              ..1~~~~~~~~~~..       ..~~~~~..~~~~..             ",
"             .t1yy~~~~~~~~..         .~~~~~.~~~>~K..            ",
"             .1tyy~~~~~~~~.          .~~~~~~>~~~K>K.            ",
"            .11yyyy~~~~~~.           ..~~~~~~~>>KKK.            ",
"            .1yyyyy~~~~~.             .~~~~~>>>>>KK.            ",
"            .1yyyyy~~~~.              .~~~~~>>>>>KK.            ",
"            .yyyyyy~~~..              .~~~~~>>>>>K..            ",
"           .Lyyyy~~~~~.               .KK~~~>>>>>K.             ",
"         ...K~~~~~~~~.                ..KK~KKKKK...             ",
"         .KK~~~~~~~~..                 ..KKKKKK..               ",
"        ..K~~~~~~~~~.                    .......                ",
"        .KK~.~~~.~~~.                                           ",
"        ..KJ.KKK.KK..                                           ",
"         ...........                                            "
};
