/* XPM */
static char *result[] = {
/* columns rows colors chars-per-pixel */
"64 64 28 1 ",
"  c black",
". c #0C0C0C",
"X c gray5",
"o c #222222",
"O c #232323",
"+ c gray16",
"@ c #3E3E3E",
"# c #444242",
"$ c gray35",
"% c gray36",
"& c gray50",
"* c #808080",
"= c #818181",
"- c #999882",
"; c #9F9E87",
": c #819C96",
"> c #819F99",
", c #A09F88",
"< c #86A69F",
"1 c #A1A089",
"2 c #A4A4A4",
"3 c #AEAEAE",
"4 c #A2B3AF",
"5 c gray69",
"6 c #B2B2B2",
"7 c gray70",
"8 c #B4B4B4",
"9 c None",
/* pixels */
"9999999999999999999999999999999999999999999999999999999999999999",
"9999999999999999999999999999999999999999999999999999999999999999",
"999999999999999999999   .                 9999999999999999999999",
"99999999999999999999 =88888888888888888888 999999999999999999999",
"99999999999999999999 =888             ==88 999999999999999999999",
"99999999999999999999 =788 99999999999 ==88 999999999999999999999",
"99999999   +o        XO                                 99999999",
"99999999 *====88888888881111111111-;;,;,688888888888858  9999999",
"9999999  ===888=8888=88118888888888888888888188888818888 9999999",
"9999999 %===88888888888888888888888888888888818818818882 9999999",
"9999999 %===888888=8888888888888888811188888888888818883 9999999",
"9999999 %====8888888888888888818888811188881888811818888 9999999",
"9999999 %====8888888888888888811888811188888888811818881 9999999",
"9999999 %=====888888888888888881888811188888888188818888 9999999",
"9999999 %%=====88888888888888888888811188888811188888888 9999999",
"9999999  %=========8888888111111%11111111111111888888888 9999999",
"99999999 %%%1*&=============1111111111%11111111========  9999999",
"99999999                                                99999999",
"99999999999 @@@@@@@@@@@@@@@@@@@@@@@@@@@@@@@@@@@@@@%@ 99999999999",
"99999999999 ========<========<%%====%%%%%%%%%%%%%%%% 99999999999",
"99999999999 ===@@@@@<<<@@@@@@<1<@@@@@@111@@@@@111%11 99999999999",
"99999999999 ===:===@<<<=====@<11%11==@1118<==@1%11%1 99999999999",
"99999999999 ===::<=@<<<<<<<=@<111111=@1118<==@111%11 99999999999",
"99999999999 ===:8<=@<888<<<=@<11111%=@1118<==@811%11 99999999999",
"99999999999 ===:8<=@8888<<<=@8181111=@1118<==@81111< 99999999999",
"99999999999 ===:8<=@8888<<<=@888111%=@1118<==@881111 99999999999",
"99999999999 ===:8<=@8888<<<=@1111<<==@1818<==@881111 99999999999",
"99999999999 ===:8<=@8888<<=@@818<<<==@8888<==@8811<1 99999999999",
"99999999999 ===:8:=@8888<<=@8818<<<=@@8888<==@8818<< 99999999999",
"99999999999 ===88:=@8888<<=@8818<<<=@88888<==@8888<< 99999999999",
"99999999999 ===88==@8888<<=@8818<<<=@88888<$$@8888<< 99999999999",
"99999999999 ===88==@8888<<=@8888<<<=@8888<<$@@8888<< 99999999999",
"99999999999 ===88==@8888<==@8888<<<=@8888<==@88888<< 99999999999",
"99999999999 ===88==@8888<==@8888<<<=@8888<==@88888<< 99999999999",
"99999999999 ===88==@8888<<=@8888<<<=@8888<==@88888<< 99999999999",
"99999999999 ===88=@88888<<=@8888<<<=@8888<==@88888<< 99999999999",
"99999999999 ===88=@88888<<=@8888<<<=@8888<==@88888<< 99999999999",
"99999999999 ===:8=@88888<<=@8888<<<=@8888<==@88888<> 99999999999",
"99999999999 ===:8=@88888<<=@8888<<<=@8888<==@88888<< 99999999999",
"99999999999  ==:8=@88888<==@8888<<<=@8888<==@88888<  99999999999",
"999999999999 ==:8=@88888<=@@8888<<<=@8888<==@88888<  99999999999",
"999999999999 ==:8=@88888<=@88888<<<=@8888<==@88888< 999999999999",
"999999999999 ==:8=@8888<<=@88888<<<=@8888<==@88888< 999999999999",
"999999999999 ==:8=@8888<<=@88888<<<=#8888<==@88888< 999999999999",
"999999999999 ==:8=@8888<<=@88888<<<=#8888<==@88888< 999999999999",
"999999999999 ==:8=@8888<<=@88888<<<=#8888<==@88888< 999999999999",
"999999999999 ==:8=@8888<<=@88888<<<=#8888<==@88888< 999999999999",
"999999999999 ==:8=@8888<<=@88888<<<=#8888<==@88888< 999999999999",
"999999999999 ==:8=@8888<==@88888<<<=#8888<==@88888< 999999999999",
"999999999999 ==::=@88<<<==@88888<<<=#8888<==@88888< 999999999999",
"999999999999 ==::=@88<<<==@888<<<<<=#88<<<==@8888<< 999999999999",
"999999999999 =====@88<====@8888@====@88=====@8888<< 999999999999",
"999999999999 @==@@@8<<@@@@@8888@@@@@#8@@@@@@@888<<@ 999999999999",
"999999999999 @====<<<888888888888888888888888888<@= 999999999999",
"999999999999 @@=======88888888888888888888888@@@@@8 999999999999",
"999999999999 =@@@@@@@@@@@@@@@@@@@@@@@@@@@@@@@=====8 999999999999",
"999999999999 =================================88888 999999999999",
"999999999999 =%%4<<<<<<<<<<<<<<<<<<<<<<<88811888888 999999999999",
"999999999999 %%%:<<<<<<8888<8<<<8888<8818811111181% 999999999999",
"999999999999 %%%:8<<<88888888<<<888888888811111181% 999999999999",
"999999999999 %%%::<8888<8888888811118<888881111111% 999999999999",
"999999999999 %%%::4=<===========%%%%8<8888811111%%% 999999999999",
"999999999999  ==================%%%%======%%%%%%%%  999999999999",
"9999999999999                                      9999999999999"
};
